<?xml version="1.0" encoding="UTF-8" standalone="no"?><!DOCTYPE svg PUBLIC "-//W3C//DTD SVG 1.1//EN" "http://www.w3.org/Graphics/SVG/1.1/DTD/svg11.dtd"><svg width="100%" height="100%" viewBox="0 0 100 100" version="1.1" xmlns="http://www.w3.org/2000/svg" xmlns:xlink="http://www.w3.org/1999/xlink" xml:space="preserve" xmlns:serif="http://www.serif.com/" style="fill-rule:evenodd;clip-rule:evenodd;stroke-linejoin:round;stroke-miterlimit:2;"><path d="M100,25c0,-13.798 -11.202,-25 -25,-25l-50,0c-13.798,0 -25,11.202 -25,25l0,50c0,13.798 11.202,25 25,25l50,0c13.798,0 25,-11.202 25,-25l0,-50Z" style="fill:#b6d399;"/><path d="M9.061,50.971c-0,3.037 3.464,5.499 7.737,5.499l-0,-5.499l-7.737,0Z" style="fill:#3eac3a;"/><rect x="16.793" y="50.98" width="43.762" height="5.49" style="fill:#3eac3a;"/><path d="M50,10.032c-22.61,0 -40.939,18.329 -40.939,40.939l40.939,0l0,-40.939Z" style="fill:#3c9339;"/><path d="M46.807,69.476c0,7.182 6.164,13.005 13.769,13.005l-0,-13.005l-13.769,-0Z" style="fill:#3c9339;"/><path d="M56.139,60.144c-5.154,-0 -9.332,4.178 -9.332,9.332l9.332,-0l0,-9.332Z" style="fill:#087604;"/><path d="M60.555,82.481c12.507,0 22.645,-11.512 22.645,-25.712c0,-14.2 -10.138,-25.712 -22.645,-25.712l0,51.424Z" style="fill:#21781e;"/><path d="M56.139,60.144c2.439,-0 4.416,2.089 4.416,4.666c0,2.577 -1.977,4.666 -4.416,4.666l0,-9.332Z" style="fill:#0d9509;"/><path d="M56.139,56.472l0,-0.002l4.416,0l0,4.572l0,-0l0,-0.026c0,-2.466 -1.967,-4.475 -4.416,-4.544Z" style="fill:#3eac3a;"/><path d="M50,50.985l-0,-0.005l10.555,0l0,10.926l-0,0l0,-0.062c0,-5.892 -4.702,-10.696 -10.555,-10.859Z" style="fill:#1c7e18;"/><path d="M53.205,31.056l-0,0.001l-3.205,0l0,-3.317l0,-0l0,0.019c0,1.789 1.428,3.247 3.205,3.297Z" style="fill:#21781e;"/><rect x="50" y="31.057" width="10.555" height="19.923" style="fill:#21781e;"/><path d="M34.015,56.47c0,4.563 3.908,8.262 8.729,8.262c4.821,-0 8.729,-3.699 8.729,-8.262l-17.458,0Z" style="fill:#486c47;"/></svg>